<svg width="100" height="98" viewBox="0 0 100 98" fill="none" xmlns="http://www.w3.org/2000/svg">
<mask id="path-1-inside-1_3_524" fill="white">
<path fill-rule="evenodd" clip-rule="evenodd" d="M47.1677 1.29066C48.3423 2.6054 48.4406 3.46299 47.5432 4.57138C47.0347 5.19912 46.1627 5.47415 43.2969 5.91035C34.6816 7.22221 27.5246 10.1759 23.3996 14.1223C19.5598 17.7955 20.2288 18.2534 27.152 16.6907C29.3912 16.1851 32.2906 15.7872 33.7333 15.7872C36.1022 15.7872 36.3986 15.8732 37.3689 16.8436C38.5828 18.0575 38.8022 20.1536 37.8984 21.902C37.1492 23.3501 34.2096 25.8932 31.1425 27.7464C28.2416 29.4992 26.4993 30.8548 26.4993 31.3593C26.4993 31.8902 29.6503 31.7377 31.8645 31.0998C32.9885 30.776 35.7781 29.784 38.0639 28.8953C43.028 26.9651 44.6936 26.8231 45.9003 28.226C46.9903 29.4934 46.9841 31.1132 45.8848 32.2125C44.8346 33.2628 38.4047 35.3914 33.9079 36.1774C30.1505 36.834 25.4885 36.915 23.4838 36.3581C22.7195 36.1459 21.5023 35.4297 20.7784 34.7665C19.656 33.7376 19.4684 33.3444 19.5013 32.0871C19.5569 29.9647 20.8431 28.5054 25.1509 25.6767C29.4992 22.8217 30.836 21.6714 30.836 20.786C30.836 19.7752 29.4374 19.6502 25.7331 20.3296C16.9592 21.9385 13.8505 21.2204 13.8505 17.5844C13.8505 12.2626 27.4642 3.23965 39.5095 0.577988C43.7789 -0.36561 45.8609 -0.171542 47.1677 1.29066ZM62.2924 0.989617C66.1474 2.04489 68.4816 2.95307 72.4703 4.94868C76.8659 7.14776 79.7058 9.06856 82.6927 11.8628C85.9806 14.9383 86.4913 17.3528 84.1755 18.8703C82.8871 19.7141 82.1314 19.3477 78.7745 16.2512C74.802 12.5867 72.0323 10.6601 68.006 8.76137C62.9346 6.37003 57.3869 5.24033 56.6406 6.44738C56.3529 6.91321 58.0724 8.6049 62.3686 12.0837C65.4474 14.5766 66.8969 16.4695 67.2113 18.4077C67.3902 19.5103 67.2446 19.8735 66.1398 21.0784L64.8608 22.473L62.0329 22.4546C59.6871 22.439 58.4501 22.1774 54.7704 20.9186C48.7669 18.8645 47.9328 18.9122 49.8576 21.1998C50.9663 22.5171 53.6819 24.4108 58.7739 27.4172C62.5385 29.6398 63.2009 30.2169 63.5804 31.605C64.1218 33.5848 61.9899 35.6714 59.9495 35.1593C59.4569 35.0357 57.2987 33.7622 55.1542 32.3289C50.4022 29.1537 45.1418 24.036 43.7425 21.2276C42.4501 18.6328 42.4093 16.2733 43.6348 14.951C45.3149 13.1382 47.5924 13.2004 53.6692 15.2242C57.9803 16.66 59.8996 16.8537 60.2693 15.8902C60.4482 15.4244 59.3882 14.1913 55.9991 10.9211C53.5196 8.529 51.3158 6.21645 51.1019 5.78242C50.5702 4.70402 50.6317 2.37158 51.2117 1.60796C52.632 -0.262611 56.8578 -0.498238 62.2924 0.989617ZM89.1443 20.619C92.5956 22.061 96.3996 29.7197 98.4899 39.435C99.0858 42.2047 99.2781 44.3655 99.2962 48.4933C99.3182 53.5235 99.2607 54.0092 98.4996 55.2336C97.6095 56.6648 97.0689 56.9889 95.5861 56.9806C93.5453 56.9687 93.5399 56.9481 93.5113 48.5963C93.4875 41.517 93.4112 40.6305 92.5576 37.4708C91.382 33.1218 90.171 30.394 88.6412 28.6517C87.5234 27.3785 87.4027 27.3265 86.9636 27.9271C86.6301 28.3832 86.4906 29.9874 86.4906 33.3661C86.4906 36.0017 86.3135 38.984 86.097 39.9933C85.3421 43.5137 82.9084 45.0724 80.185 43.78C78.0687 42.7757 76.2631 39.6421 74.2382 33.4579C73.2567 30.4605 72.6225 29.5256 71.9922 30.1472C71.2593 30.87 71.2022 34.4394 71.8462 39.2778C72.9622 47.6661 72.9614 47.292 71.8646 48.5959C70.4039 50.3313 68.1289 50.194 67.1553 48.3108C65.7903 45.6719 65.5717 34.618 66.7849 29.5993C67.8915 25.0212 69.8329 22.6537 72.4801 22.6537C74.6152 22.6537 76.2205 24.4625 77.794 28.6413C80.5446 35.9454 81.2684 37.0657 82.4639 35.8698C82.8585 35.4752 83.0938 33.9639 83.3237 30.3456C83.4979 27.6059 83.7978 24.7617 83.9908 24.0252C84.4216 22.3801 85.8794 20.5854 86.9546 20.3773C87.3951 20.292 87.8013 20.2002 87.8573 20.1731C87.9134 20.146 88.4927 20.3466 89.1443 20.619ZM12.5773 21.6313C13.5947 22.095 14.0471 23.267 13.7168 24.5828C13.6001 25.0472 12.6052 26.972 11.5058 28.8595C8.02379 34.8384 6.26128 40.8795 6.26128 46.8349C6.26128 49.7987 6.7152 51.9265 7.34763 51.9265C7.88683 51.9265 8.8026 50.4589 11.1086 45.8985C14.427 39.3352 16.471 37.6331 19.2338 39.131C21.3231 40.2637 21.9819 41.8151 21.9819 45.6022C21.9819 47.3911 21.8366 50.5218 21.6592 52.559C21.3747 55.8256 21.4037 56.2633 21.9056 56.2633C23.1268 56.2633 24.7989 52.8174 27.0446 45.673C28.6416 40.5925 29.5632 39.2778 31.5281 39.2778C32.4948 39.2778 33.1153 39.53 33.7127 40.1661C34.8406 41.3666 34.6187 43.063 32.6889 47.9834C29.9745 54.9051 25.856 60.8815 22.7715 62.3744C20.4803 63.4839 19.0759 63.3686 17.6661 61.9552C16.2097 60.4952 15.8751 58.4508 16.3799 54.0949C16.9079 49.5428 16.845 47.0412 16.1891 46.497C15.3348 45.7879 14.1397 47.1554 11.7978 51.5211C9.28831 56.1996 7.20379 58.4316 5.3437 58.4316C3.5577 58.4316 2.77492 57.93 1.90758 56.2297C0.16205 52.8083 0.32323 44.8494 2.30005 36.8648C4.1446 29.4128 7.27283 22.9526 9.58936 21.8109C11.0223 21.1044 11.3743 21.0834 12.5773 21.6313ZM83.2438 48.9873C84.0569 49.4235 84.6796 50.1261 85.0024 50.9721C85.7157 52.8423 85.0772 54.8018 82.2279 59.4829C79.4676 64.0191 79.0169 65.1087 79.6082 65.821C80.2493 66.5937 81.5619 65.9836 85.8187 62.9353C91.2946 59.0135 93.7181 58.3984 95.7372 60.4175C98.8083 63.4886 93.8652 74.2805 85.2687 83.2727C78.6624 90.1829 74.0666 92.3057 71.9242 89.4359C70.801 87.9321 71.5437 86.6694 74.8739 84.419C80.7354 80.4585 83.5922 77.7206 86.8436 72.9466C89.5953 68.907 90.9519 64.5753 89.4659 64.5753C89.1146 64.5753 87.2036 65.8492 85.2195 67.4065C80.3664 71.2152 78.4882 72.2697 76.4847 72.3116C75.0933 72.3406 74.7196 72.1805 73.8125 71.1649C71.6872 68.787 72.5715 65.2742 77.0593 58.2657C79.1041 55.0725 79.4109 53.8889 78.0882 54.2969C76.5815 54.7617 74.0453 56.8924 69.8296 61.2349C67.3266 63.8138 65.2442 65.6526 64.6624 65.799C62.6158 66.3125 60.4717 64.2511 60.9737 62.2523C61.4623 60.3054 68.0017 54.3002 72.8819 51.3169C75.3242 49.8239 79.3155 48.3314 80.8947 48.3202C81.4939 48.3159 82.551 48.6162 83.2438 48.9873ZM35.6722 57.4667C38.1054 60.0651 41.848 67.7194 43.1234 72.7074C44.3507 77.5056 43.9015 80.349 41.6796 81.843C39.3497 83.4097 37.5073 82.5745 32.1009 77.5016C30.312 75.8229 28.479 74.253 28.0276 74.0131C25.911 72.8873 26.0103 74.9831 28.3355 80.5116C29.4125 83.0718 30.2549 85.681 30.3727 86.8201C30.5639 88.6755 30.5158 88.8197 29.295 90.0405C28.5209 90.8146 27.6648 91.3184 27.1231 91.3184C21.3075 91.3184 9.55899 79.5258 5.12253 69.2355C3.50168 65.4759 3.31882 63.3907 4.4807 61.9136C5.3784 60.7724 7.27752 60.6108 8.17269 61.5996C8.49035 61.9509 9.33745 63.7802 10.0552 65.6653C12.8614 73.0348 16.9488 78.837 21.9313 82.5235C23.967 84.0298 26.1379 84.6362 26.1379 83.6988C26.1379 83.4834 25.1748 81.2471 23.9974 78.7293C20.7333 71.7486 20.3834 69.3077 22.378 67.4339C23.5442 66.3382 26.0392 66.2695 28.097 67.2756C28.8762 67.6569 31.3474 69.7259 33.588 71.8736C35.8287 74.0214 37.8337 75.7785 38.0436 75.7785C38.8188 75.7785 38.3888 73.5921 37.142 71.1971C36.4362 69.8408 34.6473 66.9262 33.1666 64.7199C30.9831 61.4666 30.4746 60.4467 30.4746 59.3224C30.4746 56.2712 33.5309 55.1802 35.6722 57.4667ZM52.323 65.8445C61.0199 67.1553 67.9804 70.0164 69.8564 73.0514C70.9778 74.8663 70.8448 77.0567 69.5391 78.2764C68.2044 79.5232 66.6074 79.9938 61.3857 80.6786C59.076 80.9815 56.8028 81.375 56.3338 81.5532C53.8116 82.5123 55.4252 83.9778 60.5154 85.3507C67.1513 87.1407 69.5051 88.665 69.5051 91.1738C69.5051 93.8496 66.3798 95.8597 60.1161 97.2127C55.9561 98.1115 45.1797 98.2817 41.3323 97.5101C37.0133 96.6435 33.4536 95.3385 32.6614 94.3317C31.553 92.9226 31.6549 90.7861 32.8685 89.991C33.764 89.4041 33.9404 89.4041 36.0307 89.9863C43.9036 92.18 45.3037 92.4622 49.2671 92.6537C51.7267 92.773 54.5293 92.6823 56.1335 92.4318C58.9885 91.9862 62.6386 90.5512 62.6386 89.8743C62.6386 89.2895 60.8168 88.6401 56.1335 87.5548C49.8283 86.0941 47.308 84.487 47.3795 81.9728C47.4775 78.5276 50.9089 76.6672 58.4826 75.9534C61.5609 75.6636 63.7228 75.1435 63.7228 74.6932C63.7228 73.6647 59.7439 72.6441 53.7845 72.1443C51.2005 71.9275 48.5584 71.6734 47.9133 71.5798C46.3654 71.355 44.9831 70.0945 44.707 68.6554C44.5209 67.6855 44.6644 67.3154 45.583 66.3967C46.8602 65.1199 47.2834 65.0852 52.323 65.8445Z"/>
</mask>
<path fill-rule="evenodd" clip-rule="evenodd" d="M47.1677 1.29066C48.3423 2.6054 48.4406 3.46299 47.5432 4.57138C47.0347 5.19912 46.1627 5.47415 43.2969 5.91035C34.6816 7.22221 27.5246 10.1759 23.3996 14.1223C19.5598 17.7955 20.2288 18.2534 27.152 16.6907C29.3912 16.1851 32.2906 15.7872 33.7333 15.7872C36.1022 15.7872 36.3986 15.8732 37.3689 16.8436C38.5828 18.0575 38.8022 20.1536 37.8984 21.902C37.1492 23.3501 34.2096 25.8932 31.1425 27.7464C28.2416 29.4992 26.4993 30.8548 26.4993 31.3593C26.4993 31.8902 29.6503 31.7377 31.8645 31.0998C32.9885 30.776 35.7781 29.784 38.0639 28.8953C43.028 26.9651 44.6936 26.8231 45.9003 28.226C46.9903 29.4934 46.9841 31.1132 45.8848 32.2125C44.8346 33.2628 38.4047 35.3914 33.9079 36.1774C30.1505 36.834 25.4885 36.915 23.4838 36.3581C22.7195 36.1459 21.5023 35.4297 20.7784 34.7665C19.656 33.7376 19.4684 33.3444 19.5013 32.0871C19.5569 29.9647 20.8431 28.5054 25.1509 25.6767C29.4992 22.8217 30.836 21.6714 30.836 20.786C30.836 19.7752 29.4374 19.6502 25.7331 20.3296C16.9592 21.9385 13.8505 21.2204 13.8505 17.5844C13.8505 12.2626 27.4642 3.23965 39.5095 0.577988C43.7789 -0.36561 45.8609 -0.171542 47.1677 1.29066ZM62.2924 0.989617C66.1474 2.04489 68.4816 2.95307 72.4703 4.94868C76.8659 7.14776 79.7058 9.06856 82.6927 11.8628C85.9806 14.9383 86.4913 17.3528 84.1755 18.8703C82.8871 19.7141 82.1314 19.3477 78.7745 16.2512C74.802 12.5867 72.0323 10.6601 68.006 8.76137C62.9346 6.37003 57.3869 5.24033 56.6406 6.44738C56.3529 6.91321 58.0724 8.6049 62.3686 12.0837C65.4474 14.5766 66.8969 16.4695 67.2113 18.4077C67.3902 19.5103 67.2446 19.8735 66.1398 21.0784L64.8608 22.473L62.0329 22.4546C59.6871 22.439 58.4501 22.1774 54.7704 20.9186C48.7669 18.8645 47.9328 18.9122 49.8576 21.1998C50.9663 22.5171 53.6819 24.4108 58.7739 27.4172C62.5385 29.6398 63.2009 30.2169 63.5804 31.605C64.1218 33.5848 61.9899 35.6714 59.9495 35.1593C59.4569 35.0357 57.2987 33.7622 55.1542 32.3289C50.4022 29.1537 45.1418 24.036 43.7425 21.2276C42.4501 18.6328 42.4093 16.2733 43.6348 14.951C45.3149 13.1382 47.5924 13.2004 53.6692 15.2242C57.9803 16.66 59.8996 16.8537 60.2693 15.8902C60.4482 15.4244 59.3882 14.1913 55.9991 10.9211C53.5196 8.529 51.3158 6.21645 51.1019 5.78242C50.5702 4.70402 50.6317 2.37158 51.2117 1.60796C52.632 -0.262611 56.8578 -0.498238 62.2924 0.989617ZM89.1443 20.619C92.5956 22.061 96.3996 29.7197 98.4899 39.435C99.0858 42.2047 99.2781 44.3655 99.2962 48.4933C99.3182 53.5235 99.2607 54.0092 98.4996 55.2336C97.6095 56.6648 97.0689 56.9889 95.5861 56.9806C93.5453 56.9687 93.5399 56.9481 93.5113 48.5963C93.4875 41.517 93.4112 40.6305 92.5576 37.4708C91.382 33.1218 90.171 30.394 88.6412 28.6517C87.5234 27.3785 87.4027 27.3265 86.9636 27.9271C86.6301 28.3832 86.4906 29.9874 86.4906 33.3661C86.4906 36.0017 86.3135 38.984 86.097 39.9933C85.3421 43.5137 82.9084 45.0724 80.185 43.78C78.0687 42.7757 76.2631 39.6421 74.2382 33.4579C73.2567 30.4605 72.6225 29.5256 71.9922 30.1472C71.2593 30.87 71.2022 34.4394 71.8462 39.2778C72.9622 47.6661 72.9614 47.292 71.8646 48.5959C70.4039 50.3313 68.1289 50.194 67.1553 48.3108C65.7903 45.6719 65.5717 34.618 66.7849 29.5993C67.8915 25.0212 69.8329 22.6537 72.4801 22.6537C74.6152 22.6537 76.2205 24.4625 77.794 28.6413C80.5446 35.9454 81.2684 37.0657 82.4639 35.8698C82.8585 35.4752 83.0938 33.9639 83.3237 30.3456C83.4979 27.6059 83.7978 24.7617 83.9908 24.0252C84.4216 22.3801 85.8794 20.5854 86.9546 20.3773C87.3951 20.292 87.8013 20.2002 87.8573 20.1731C87.9134 20.146 88.4927 20.3466 89.1443 20.619ZM12.5773 21.6313C13.5947 22.095 14.0471 23.267 13.7168 24.5828C13.6001 25.0472 12.6052 26.972 11.5058 28.8595C8.02379 34.8384 6.26128 40.8795 6.26128 46.8349C6.26128 49.7987 6.7152 51.9265 7.34763 51.9265C7.88683 51.9265 8.8026 50.4589 11.1086 45.8985C14.427 39.3352 16.471 37.6331 19.2338 39.131C21.3231 40.2637 21.9819 41.8151 21.9819 45.6022C21.9819 47.3911 21.8366 50.5218 21.6592 52.559C21.3747 55.8256 21.4037 56.2633 21.9056 56.2633C23.1268 56.2633 24.7989 52.8174 27.0446 45.673C28.6416 40.5925 29.5632 39.2778 31.5281 39.2778C32.4948 39.2778 33.1153 39.53 33.7127 40.1661C34.8406 41.3666 34.6187 43.063 32.6889 47.9834C29.9745 54.9051 25.856 60.8815 22.7715 62.3744C20.4803 63.4839 19.0759 63.3686 17.6661 61.9552C16.2097 60.4952 15.8751 58.4508 16.3799 54.0949C16.9079 49.5428 16.845 47.0412 16.1891 46.497C15.3348 45.7879 14.1397 47.1554 11.7978 51.5211C9.28831 56.1996 7.20379 58.4316 5.3437 58.4316C3.5577 58.4316 2.77492 57.93 1.90758 56.2297C0.16205 52.8083 0.32323 44.8494 2.30005 36.8648C4.1446 29.4128 7.27283 22.9526 9.58936 21.8109C11.0223 21.1044 11.3743 21.0834 12.5773 21.6313ZM83.2438 48.9873C84.0569 49.4235 84.6796 50.1261 85.0024 50.9721C85.7157 52.8423 85.0772 54.8018 82.2279 59.4829C79.4676 64.0191 79.0169 65.1087 79.6082 65.821C80.2493 66.5937 81.5619 65.9836 85.8187 62.9353C91.2946 59.0135 93.7181 58.3984 95.7372 60.4175C98.8083 63.4886 93.8652 74.2805 85.2687 83.2727C78.6624 90.1829 74.0666 92.3057 71.9242 89.4359C70.801 87.9321 71.5437 86.6694 74.8739 84.419C80.7354 80.4585 83.5922 77.7206 86.8436 72.9466C89.5953 68.907 90.9519 64.5753 89.4659 64.5753C89.1146 64.5753 87.2036 65.8492 85.2195 67.4065C80.3664 71.2152 78.4882 72.2697 76.4847 72.3116C75.0933 72.3406 74.7196 72.1805 73.8125 71.1649C71.6872 68.787 72.5715 65.2742 77.0593 58.2657C79.1041 55.0725 79.4109 53.8889 78.0882 54.2969C76.5815 54.7617 74.0453 56.8924 69.8296 61.2349C67.3266 63.8138 65.2442 65.6526 64.6624 65.799C62.6158 66.3125 60.4717 64.2511 60.9737 62.2523C61.4623 60.3054 68.0017 54.3002 72.8819 51.3169C75.3242 49.8239 79.3155 48.3314 80.8947 48.3202C81.4939 48.3159 82.551 48.6162 83.2438 48.9873ZM35.6722 57.4667C38.1054 60.0651 41.848 67.7194 43.1234 72.7074C44.3507 77.5056 43.9015 80.349 41.6796 81.843C39.3497 83.4097 37.5073 82.5745 32.1009 77.5016C30.312 75.8229 28.479 74.253 28.0276 74.0131C25.911 72.8873 26.0103 74.9831 28.3355 80.5116C29.4125 83.0718 30.2549 85.681 30.3727 86.8201C30.5639 88.6755 30.5158 88.8197 29.295 90.0405C28.5209 90.8146 27.6648 91.3184 27.1231 91.3184C21.3075 91.3184 9.55899 79.5258 5.12253 69.2355C3.50168 65.4759 3.31882 63.3907 4.4807 61.9136C5.3784 60.7724 7.27752 60.6108 8.17269 61.5996C8.49035 61.9509 9.33745 63.7802 10.0552 65.6653C12.8614 73.0348 16.9488 78.837 21.9313 82.5235C23.967 84.0298 26.1379 84.6362 26.1379 83.6988C26.1379 83.4834 25.1748 81.2471 23.9974 78.7293C20.7333 71.7486 20.3834 69.3077 22.378 67.4339C23.5442 66.3382 26.0392 66.2695 28.097 67.2756C28.8762 67.6569 31.3474 69.7259 33.588 71.8736C35.8287 74.0214 37.8337 75.7785 38.0436 75.7785C38.8188 75.7785 38.3888 73.5921 37.142 71.1971C36.4362 69.8408 34.6473 66.9262 33.1666 64.7199C30.9831 61.4666 30.4746 60.4467 30.4746 59.3224C30.4746 56.2712 33.5309 55.1802 35.6722 57.4667ZM52.323 65.8445C61.0199 67.1553 67.9804 70.0164 69.8564 73.0514C70.9778 74.8663 70.8448 77.0567 69.5391 78.2764C68.2044 79.5232 66.6074 79.9938 61.3857 80.6786C59.076 80.9815 56.8028 81.375 56.3338 81.5532C53.8116 82.5123 55.4252 83.9778 60.5154 85.3507C67.1513 87.1407 69.5051 88.665 69.5051 91.1738C69.5051 93.8496 66.3798 95.8597 60.1161 97.2127C55.9561 98.1115 45.1797 98.2817 41.3323 97.5101C37.0133 96.6435 33.4536 95.3385 32.6614 94.3317C31.553 92.9226 31.6549 90.7861 32.8685 89.991C33.764 89.4041 33.9404 89.4041 36.0307 89.9863C43.9036 92.18 45.3037 92.4622 49.2671 92.6537C51.7267 92.773 54.5293 92.6823 56.1335 92.4318C58.9885 91.9862 62.6386 90.5512 62.6386 89.8743C62.6386 89.2895 60.8168 88.6401 56.1335 87.5548C49.8283 86.0941 47.308 84.487 47.3795 81.9728C47.4775 78.5276 50.9089 76.6672 58.4826 75.9534C61.5609 75.6636 63.7228 75.1435 63.7228 74.6932C63.7228 73.6647 59.7439 72.6441 53.7845 72.1443C51.2005 71.9275 48.5584 71.6734 47.9133 71.5798C46.3654 71.355 44.9831 70.0945 44.707 68.6554C44.5209 67.6855 44.6644 67.3154 45.583 66.3967C46.8602 65.1199 47.2834 65.0852 52.323 65.8445Z" stroke="#4338CA" stroke-width="2" mask="url(#path-1-inside-1_3_524)"/>
</svg>
